<?xml version="1.0" encoding="UTF-8"?>
<svg id="Layer_2" data-name="Layer 2" xmlns="http://www.w3.org/2000/svg" viewBox="0 0 338.4 225.6">
  <defs>
    <style>
      .cls-1 {
        fill: #f4a4b0;
      }

      .cls-2 {
        fill: #fbf2ee;
      }

      .cls-3, .cls-4 {
        fill: #fff;
      }

      .cls-4 {
        fill-rule: evenodd;
      }

      .cls-5 {
        fill: none;
      }

      .cls-6 {
        fill: #e89f06;
      }

      .cls-7 {
        fill: #e84323;
      }

      .cls-8 {
        fill: #4d6cb2;
      }
    </style>
  </defs>
  <g id="Layer_1-2" data-name="Layer 1">
    <g>
      <path class="cls-6" d="M56.4,112.8h112.8c31.15,0,56.4-25.25,56.4-56.4S200.35,0,169.2,0H56.4C25.25,0,0,25.25,0,56.4s25.25,56.4,56.4,56.4"/>
      <path class="cls-8" d="M181.2,69.91c-7.46,0-13.51-6.05-13.51-13.51s6.05-13.51,13.51-13.51,13.51,6.05,13.51,13.51-6.05,13.51-13.51,13.51"/>
      <path class="cls-3" d="M179.54,48.9l.95-.95v4.59c0,.39.32.71.71.71s.71-.32.71-.71v-4.59l.95.95c.14.14.32.21.51.21s.37-.07.51-.21c.28-.28.28-.73,0-1.01l-2.17-2.17c-.27-.27-.74-.27-1.01,0l-2.17,2.17c-.28.28-.28.73,0,1.01.28.28.73.28,1.01,0"/>
      <path class="cls-3" d="M187.96,54.64c-.22-.24-2.74-2.93-2.74-2.93-.3-.32-.81-.34-1.14-.04-.32.3-.34.81-.04,1.14l1.46,1.56h-8.61l1.46-1.56c.3-.32.29-.83-.04-1.14-.32-.3-.83-.29-1.14.04,0,0-2.56,2.73-2.74,2.93-.18.2-.39.58-.3.95l1.62,6.01c.11.42.5.72.93.72h9c.44,0,.82-.29.93-.72l1.62-6.01c.1-.37-.07-.71-.3-.95M178.92,59.75c0,.3-.24.54-.54.54s-.54-.24-.54-.54v-2.81c0-.3.24-.54.54-.54s.54.24.54.54v2.81ZM181.74,59.75c0,.3-.24.54-.54.54s-.54-.24-.54-.54v-2.81c0-.3.24-.54.54-.54s.54.24.54.54v2.81ZM184.55,59.75c0,.3-.24.54-.54.54s-.54-.24-.54-.54v-2.81c0-.3.24-.54.54-.54s.54.24.54.54v2.81Z"/>
      <path class="cls-1" d="M338.4,169.2V56.4c0-31.15-25.25-56.4-56.4-56.4s-56.4,25.25-56.4,56.4v112.8c0,31.15,25.25,56.4,56.4,56.4s56.4-25.25,56.4-56.4"/>
      <path class="cls-2" d="M282,112.8h-112.8c-31.15,0-56.4,25.25-56.4,56.4s25.25,56.4,56.4,56.4h112.8c31.15,0,56.4-25.25,56.4-56.4s-25.25-56.4-56.4-56.4"/>
      <path class="cls-5" d="M282,112.8h-112.8c-31.15,0-56.4,25.25-56.4,56.4s25.25,56.4,56.4,56.4h112.8c31.15,0,56.4-25.25,56.4-56.4s-25.25-56.4-56.4-56.4"/>
      <path class="cls-7" d="M56.4,225.6c-31.15,0-56.4-25.25-56.4-56.4s25.25-56.4,56.4-56.4,56.4,25.25,56.4,56.4-25.25,56.4-56.4,56.4"/>
      <rect class="cls-8" x="171.77" y="55.91" width="112.8" height=".98"/>
      <rect class="cls-8" x="56.4" y="168.71" width="225.6" height=".98"/>
      <path class="cls-8" d="M270.57,69.13h0c0,.89.61,1.61,1.49,1.76l19.71,3.31c.49.08.67.46.67.79s-.18.71-.67.79l-19.71,3.31c-.88.15-1.49.87-1.49,1.76h0c0,.89.61,1.61,1.49,1.76l19.71,3.31c.49.08.67.46.67.79s-.18.71-.67.79l-19.71,3.31c-.88.15-1.49.87-1.49,1.76s.61,1.61,1.49,1.76l19.71,3.31c.49.08.67.46.67.79s-.18.71-.67.79l-19.71,3.31c-.88.15-1.49.87-1.49,1.76s.61,1.61,1.49,1.76l19.71,3.31c.49.08.67.46.67.79s-.18.71-.67.79l-19.71,3.31c-.88.15-1.49.87-1.49,1.76s.61,1.61,1.49,1.76l19.71,3.31c.49.08.67.46.67.79s-.18.71-.67.79l-19.71,3.31c-.88.15-1.49.87-1.49,1.76s.61,1.61,1.49,1.76l19.71,3.31c.49.08.67.46.67.79,0,.33-.18.71-.67.79l-19.71,3.31c-.88.15-1.49.87-1.49,1.76s.61,1.61,1.49,1.76l19.71,3.31c.49.08.67.46.67.79s-.18.71-.67.79l-19.71,3.31c-.88.15-1.49.87-1.49,1.76s.61,1.61,1.49,1.76l14.1,2.37c1.08.18,1.47,1.05,1.47,1.73s-.38,1.55-1.47,1.74l.16.97c1.58-.27,2.29-1.55,2.29-2.7h0c0-1.16-.71-2.44-2.29-2.7l-14.1-2.37c-.49-.08-.67-.46-.67-.79s.18-.71.67-.79l19.71-3.31c.88-.15,1.49-.87,1.49-1.76s-.61-1.61-1.49-1.76l-19.71-3.31c-.49-.08-.67-.46-.67-.79s.18-.71.67-.79l19.71-3.31c.88-.15,1.49-.87,1.49-1.76,0-.89-.61-1.61-1.49-1.76l-19.71-3.31c-.49-.08-.67-.46-.67-.79s.18-.71.67-.79l19.71-3.31c.88-.15,1.49-.87,1.49-1.76s-.61-1.61-1.49-1.76l-19.71-3.31c-.49-.08-.67-.46-.67-.79s.18-.71.67-.79l19.71-3.31c.88-.15,1.49-.87,1.49-1.76s-.61-1.61-1.49-1.76l-19.71-3.31c-.49-.08-.67-.46-.67-.79s.18-.71.67-.79l19.71-3.31c.88-.15,1.49-.87,1.49-1.76s-.61-1.61-1.49-1.76l-19.71-3.31c-.49-.08-.67-.46-.67-.79s.18-.71.67-.79l19.71-3.31c.88-.15,1.49-.87,1.49-1.76s-.61-1.61-1.49-1.76l-19.71-3.31c-.49-.08-.67-.46-.67-.79s.18-.71.67-.79l19.71-3.31c.88-.15,1.49-.87,1.49-1.76h0c0-.89-.61-1.61-1.49-1.76l-19.71-3.31c-.49-.08-.67-.46-.67-.79s.18-.71.67-.79l14.1-2.37c1.58-.27,2.29-1.55,2.29-2.7s-.71-2.44-2.29-2.7l-.16.97c1.08.18,1.47,1.05,1.47,1.73s-.38,1.55-1.47,1.73l-14.1,2.37c-.88.15-1.49.87-1.49,1.76"/>
      <path class="cls-8" d="M282,182.71c-7.46,0-13.51-6.05-13.51-13.51s6.05-13.51,13.51-13.51,13.51,6.05,13.51,13.51-6.05,13.51-13.51,13.51"/>
      <path class="cls-8" d="M282,69.91c-7.46,0-13.51-6.05-13.51-13.51s6.05-13.51,13.51-13.51,13.51,6.05,13.51,13.51-6.05,13.51-13.51,13.51"/>
      <path class="cls-8" d="M56.4,182.71c-7.46,0-13.51-6.05-13.51-13.51s6.05-13.51,13.51-13.51,13.51,6.05,13.51,13.51-6.05,13.51-13.51,13.51"/>
      <path class="cls-3" d="M282.19,51.63h-.89c-.15,0-.27.12-.27.27v.83c-1.15.19-1.96,1.25-1.84,2.42.11,1.12,1.13,2.01,2.31,2.01h.58c.23,0,.44.1.59.26.15.17.23.39.2.62-.04.4-.41.72-.85.72h-.79c-.25,0-.47-.17-.52-.42-.02-.12-.13-.2-.26-.2h-.9c-.08,0-.15.03-.2.09-.05.05-.07.12-.07.2.09.91.82,1.64,1.74,1.74v.81c0,.15.12.27.27.27h.89c.15,0,.27-.12.27-.27v-.84c.99-.2,1.75-1,1.84-1.96.06-.64-.14-1.25-.57-1.72-.42-.47-1.02-.73-1.65-.73h-.68c-.23,0-.44-.1-.6-.27-.15-.17-.23-.39-.2-.62.04-.4.41-.72.85-.72h.79c.25,0,.47.18.52.42.02.12.13.2.26.2h.9c.08,0,.15-.03.2-.09.05-.06.07-.12.07-.2-.09-.92-.82-1.64-1.74-1.74v-.81c0-.15-.12-.27-.27-.27"/>
      <path class="cls-3" d="M271.71,55.37c.24-.24.63-.24.87,0l1.37,1.37v-.32c0-4.3,3.5-7.8,7.8-7.8,2.5,0,4.87,1.22,6.34,3.26.08.11.12.23.12.36,0,.19-.09.38-.25.5-.27.2-.66.13-.85-.14-1.24-1.72-3.24-2.75-5.35-2.75-3.63,0-6.58,2.95-6.58,6.58v.32l1.37-1.37c.24-.24.63-.24.87,0,.12.12.18.28.18.43s-.06.31-.18.43l-2.41,2.41c-.24.24-.63.24-.87,0l-2.41-2.41c-.24-.24-.24-.63,0-.87"/>
      <path class="cls-3" d="M275.54,60.12c.27-.2.66-.14.85.14,1.24,1.72,3.24,2.75,5.35,2.75,3.63,0,6.58-2.95,6.58-6.58v-.31l-1.37,1.37c-.24.24-.63.24-.87,0-.24-.24-.24-.63,0-.87l2.41-2.41c.11-.11.27-.18.43-.18s.32.06.43.18l2.41,2.41c.12.12.18.28.18.43s-.06.31-.18.43c-.24.24-.63.24-.87,0l-1.37-1.37v.32c0,4.3-3.5,7.8-7.8,7.8-2.5,0-4.87-1.22-6.34-3.26-.2-.27-.13-.66.14-.85"/>
      <path class="cls-4" d="M280.03,161.58c.21-.08.44-.12.68-.12h7.53c.38,0,.68.31.68.68s-.31.68-.68.68h-3.42c-.38,0-.68.31-.68.68s.31.68.68.68h3.42c.38,0,.68.31.68.68s-.31.68-.68.68h-4.11c-.38,0-.68.31-.68.68s.31.68.68.68h3.42c.38,0,.68.31.68.68s-.31.68-.68.68h-6.53v-2.99c0-.79-.64-1.43-1.43-1.43h-.94v-.37c0-.89.57-1.65,1.37-1.94"/>
      <path class="cls-4" d="M274.16,168.31l1.46-2.43c.37-.62,1.04-1,1.76-1h2.22c.24,0,.43.19.43.43v6.41c0,.38.31.68.68.68h2.28c.38-.81,1.21-1.37,2.16-1.37s1.78.56,2.17,1.37h.9c.37,0,.69.28.7.65.02.39-.29.72-.68.72h-.71c-.17,1.16-1.16,2.05-2.37,2.05s-2.21-.89-2.37-2.05h-2.79c-.17,1.16-1.16,2.05-2.37,2.05s-2.27-.95-2.38-2.17c-.8-.28-1.38-1.04-1.38-1.94v-2.36c0-.37.1-.74.29-1.06M285.16,174.46c.57,0,1.03-.46,1.03-1.03s-.46-1.03-1.03-1.03-1.03.46-1.03,1.03.46,1.03,1.03,1.03ZM277.64,174.46c.57,0,1.03-.46,1.03-1.03s-.46-1.03-1.03-1.03-1.03.46-1.03,1.03.46,1.03,1.03,1.03ZM275.24,171.73c0,.23.12.44.29.56.35-.65,1-1.11,1.76-1.22.11-.02.23-.02.34-.02.37,0,.72.08,1.03.23v-.92c0-.38-.31-.68-.68-.68h-2.05c-.38,0-.68.31-.68.68v1.37Z"/>
      <polygon class="cls-4" points="62.48 158.52 57.16 163.7 54.69 161.3 54.69 164.2 57.16 166.6 62.48 161.42 62.48 158.52"/>
      <path class="cls-3" d="M54.63,173.55l.78-2.13c.24-.63.52-1.61.53-1.61h.02s.3.99.53,1.61l.78,2.13h-2.65ZM58.75,177.58h2.84l-4.39-10.97h-2.49l-4.39,10.97h2.84l.63-1.72h4.34l.63,1.72Z"/>
    </g>
  </g>
</svg>