<?xml version="1.0" encoding="UTF-8"?>
<svg id="Layer_2" data-name="Layer 2" xmlns="http://www.w3.org/2000/svg" viewBox="0 0 35.05 35.05">
  <defs>
    <style>
      .cls-1 {
        fill: #011839;
      }

      .cls-2 {
        fill: #4776fa;
      }
    </style>
  </defs>
  <g id="Layer_1-2" data-name="Layer 1">
    <g>
      <path class="cls-1" d="M17.53,35.05c-.48,0-.97-.12-1.41-.36l-1.65-.89c-.11-.06-.23-.09-.36-.07l-1.86.2c-.99.11-1.98-.3-2.61-1.08l-1.17-1.45c-.08-.1-.18-.17-.3-.2l-1.79-.53c-.96-.28-1.7-1.03-1.99-1.99l-.53-1.79c-.04-.12-.11-.22-.2-.3l-1.45-1.17c-.78-.63-1.19-1.61-1.08-2.61l.2-1.86c.01-.12-.01-.25-.07-.36l-.89-1.65c-.48-.88-.48-1.93,0-2.81l.89-1.65c.06-.11.08-.23.07-.36l-.2-1.86c-.11-1,.3-1.97,1.08-2.61l1.46-1.17c.1-.08.17-.18.2-.3l.53-1.79c.28-.96,1.03-1.71,1.99-1.99l1.79-.53c.12-.04.23-.1.3-.2l1.17-1.46c.63-.78,1.61-1.18,2.61-1.08l1.86.2c.12.02.25-.01.36-.07l1.65-.89c.88-.48,1.93-.48,2.81,0l1.65.89c.11.06.24.08.36.07l1.86-.2c1-.11,1.97.3,2.6,1.08l1.18,1.46c.08.1.18.17.3.2l1.79.53c.96.29,1.71,1.03,1.99,1.99l.53,1.79c.04.12.11.22.2.3l1.45,1.17c.78.63,1.19,1.61,1.08,2.61l-.2,1.86c-.01.12.01.25.07.36l.89,1.65c.48.88.48,1.93,0,2.81l-.89,1.65c-.06.11-.08.23-.07.36l.2,1.86c.11,1-.3,1.97-1.08,2.6l-1.45,1.17c-.1.08-.17.18-.2.3l-.53,1.79c-.29.96-1.03,1.71-1.99,1.99l-1.79.53c-.12.04-.22.1-.3.2l-1.17,1.45c-.63.78-1.6,1.19-2.61,1.08l-1.86-.2c-.12-.01-.24.01-.35.07l-1.65.9c-.44.24-.92.36-1.41.36M14.18,31.39c.49,0,.97.12,1.41.36l1.64.89c.18.1.4.1.58,0l1.65-.89c.53-.29,1.12-.41,1.72-.34l1.86.2c.22.02.41-.06.54-.22l1.18-1.45c.38-.47.88-.8,1.46-.98l1.79-.53c.2-.06.35-.21.41-.41l.53-1.79c.17-.58.51-1.08.97-1.46l1.46-1.17c.16-.13.25-.33.22-.54l-.2-1.86c-.06-.6.05-1.19.34-1.72l.89-1.65c.1-.18.1-.4,0-.58l-.89-1.65c-.29-.53-.4-1.12-.34-1.72l.2-1.86c.02-.21-.06-.41-.22-.54l-1.45-1.17c-.47-.38-.81-.88-.98-1.46l-.53-1.79c-.06-.2-.21-.36-.41-.41l-1.79-.53c-.58-.17-1.08-.51-1.46-.98l-1.17-1.46c-.13-.16-.33-.25-.54-.22l-1.86.2c-.59.06-1.19-.06-1.72-.34l-1.65-.89c-.18-.1-.4-.1-.58,0l-1.65.89c-.53.29-1.12.4-1.72.34l-1.86-.2c-.21-.03-.41.06-.54.22l-1.17,1.45c-.38.47-.88.81-1.46.98l-1.79.53c-.2.06-.35.21-.41.41l-.53,1.79c-.17.58-.51,1.08-.98,1.46l-1.45,1.17c-.16.13-.25.33-.22.54l.2,1.86c.06.6-.05,1.19-.34,1.72l-.89,1.65c-.1.18-.1.4,0,.58l.89,1.65c.29.53.4,1.12.34,1.72l-.2,1.86c-.02.21.06.41.22.54l1.45,1.17c.47.38.8.88.98,1.46l.53,1.8c.06.2.21.35.41.41l1.79.53c.58.17,1.08.51,1.46.98l1.17,1.45c.13.16.34.24.54.23l1.86-.2c.11-.01.21-.02.31-.02Z"/>
      <path class="cls-2" d="M17.53,5.84c-6.44,0-11.69,5.24-11.69,11.68s5.24,11.68,11.69,11.68,11.68-5.24,11.68-11.68-5.24-11.68-11.68-11.68M11.68,12.85c0-.64.52-1.17,1.17-1.17s1.17.52,1.17,1.17v1.56c0,.65-.52,1.17-1.17,1.17s-1.17-.52-1.17-1.17v-1.56ZM23.37,22.2c0,.65-.52,1.17-1.17,1.17s-1.17-.52-1.17-1.17v-1.56c0-.65.52-1.17,1.17-1.17s1.17.52,1.17,1.17v1.56ZM23.03,13.68l-9.35,9.35c-.23.23-.53.34-.83.34s-.6-.11-.83-.34c-.46-.46-.46-1.2,0-1.65l9.35-9.35c.46-.46,1.2-.46,1.65,0,.46.46.46,1.2,0,1.65Z"/>
    </g>
  </g>
</svg>