<?xml version="1.0" encoding="UTF-8"?>
<svg id="Layer_2" data-name="Layer 2" xmlns="http://www.w3.org/2000/svg" viewBox="0 0 35.39 31.85">
  <defs>
    <style>
      .cls-1 {
        fill: #011839;
      }

      .cls-2 {
        fill: #4776fa;
      }
    </style>
  </defs>
  <g id="Layer_1-2" data-name="Layer 1">
    <g>
      <path class="cls-1" d="M32.44,18.87c-.65,0-1.18.53-1.18,1.18v8.26c0,.65-.53,1.18-1.18,1.18H5.31c-.65,0-1.18-.53-1.18-1.18v-8.26c0-.65-.53-1.18-1.18-1.18s-1.18.53-1.18,1.18v8.26c0,1.95,1.59,3.54,3.54,3.54h24.77c1.95,0,3.54-1.59,3.54-3.54v-8.26c0-.65-.53-1.18-1.18-1.18"/>
      <path class="cls-1" d="M19.86,23v2.36c0,.65.53,1.18,1.18,1.18s1.18-.53,1.18-1.18v-2.36c0-.65-.53-1.18-1.18-1.18s-1.18.53-1.18,1.18"/>
      <path class="cls-1" d="M13.17,23v2.36c0,.65.53,1.18,1.18,1.18s1.18-.53,1.18-1.18v-2.36c0-.65-.53-1.18-1.18-1.18s-1.18.53-1.18,1.18"/>
      <path class="cls-1" d="M7.67,26.54c.65,0,1.18-.53,1.18-1.18v-2.36c0-.65-.53-1.18-1.18-1.18s-1.18.53-1.18,1.18v2.36c0,.65.53,1.18,1.18,1.18"/>
      <path class="cls-1" d="M27.72,26.54c.65,0,1.18-.53,1.18-1.18v-2.36c0-.65-.53-1.18-1.18-1.18s-1.18.53-1.18,1.18v2.36c0,.65.53,1.18,1.18,1.18"/>
      <path class="cls-2" d="M34.21,12.98H1.18c-.65,0-1.18.53-1.18,1.18v3.54h35.39v-3.54c0-.65-.53-1.18-1.18-1.18"/>
      <path class="cls-2" d="M2.65,10.62h6.05L5.51,1.87c-.41-1.12-1.48-1.87-2.67-1.87C1.92,0,1.05.45.52,1.21-.02,1.97-.14,2.94.17,3.81l2.47,6.8Z"/>
      <path class="cls-2" d="M35.22,3.81c.32-.87.19-1.84-.34-2.6-.53-.76-1.4-1.21-2.33-1.21-1.19,0-2.26.75-2.67,1.87l-3.18,8.75h6.05l2.47-6.8Z"/>
    </g>
  </g>
</svg>