<?xml version="1.0" encoding="UTF-8"?>
<svg id="Layer_2" data-name="Layer 2" xmlns="http://www.w3.org/2000/svg" viewBox="0 0 35.39 35.39">
  <defs>
    <style>
      .cls-1 {
        fill: #011839;
      }

      .cls-2 {
        fill: #4776fa;
      }
    </style>
  </defs>
  <g id="Layer_1-2" data-name="Layer 1">
    <g>
      <path class="cls-1" d="M35.16,6.38c-.22-.3-.58-.48-.95-.48h-10.79v-2.95c0-1.63-1.32-2.95-2.95-2.95h-3.2c-1.63,0-2.95,1.32-2.95,2.95v2.95h-6.07c-.65,0-1.18.53-1.18,1.18s.53,1.18,1.18,1.18h6.07v4.08l-.73-.45c-.56-.34-1.28-.17-1.62.39-.34.55-.17,1.28.39,1.62l5.9,3.63c.19.12.4.18.62.18s.43-.06.62-.18l5.9-3.63c.55-.34.73-1.07.39-1.62-.34-.56-1.07-.73-1.62-.39l-.73.45v-4.08h9.19l-3.74,12.14c-.15.5-.61.83-1.13.83H8.26c-.65,0-1.18.53-1.18,1.18s.53,1.18,1.18,1.18h19.49c1.56,0,2.92-1,3.38-2.5l4.21-13.67c.11-.36.04-.75-.18-1.05M18.87,15.13l-2.19-1.35V2.95c0-.33.27-.59.59-.59h3.2c.32,0,.59.26.59.59v10.83l-2.19,1.35Z"/>
      <path class="cls-2" d="M8.26,32.44c0,1.63,1.32,2.95,2.95,2.95s2.95-1.32,2.95-2.95v-.59h-5.9v.59ZM23.59,32.44c0,1.63,1.32,2.95,2.95,2.95s2.95-1.32,2.95-2.95v-.59h-5.9v.59ZM30.67,27.13H7.08c-.65,0-1.18-.53-1.18-1.18V3.54c0-1.95-1.59-3.54-3.54-3.54h-1.18C.53,0,0,.53,0,1.18s.53,1.18,1.18,1.18h1.18c.65,0,1.18.53,1.18,1.18v22.42c0,1.95,1.59,3.54,3.54,3.54h23.59c.65,0,1.18-.53,1.18-1.18s-.53-1.18-1.18-1.18Z"/>
    </g>
  </g>
</svg>