<?xml version="1.0" encoding="UTF-8"?>
<svg id="Layer_2" data-name="Layer 2" xmlns="http://www.w3.org/2000/svg" viewBox="0 0 54.53 37.76">
  <defs>
    <style>
      .cls-1 {
        fill: #4776fa;
        fill-rule: evenodd;
      }

      .cls-2 {
        fill: #061938;
      }
    </style>
  </defs>
  <g id="Layer_1-2" data-name="Layer 1">
    <g>
      <path class="cls-2" d="M17.47,21.43c-2.49-.23-4.94.63-6.77,2.32v-3.56c0-.06-.03-.11-.03-.16,2.37-.19,4.6-1.34,6.15-3.24,1.86-2.29,2.52-5.38,1.76-8.26-.13-.51-.57-.88-1.1-.93-1.04-.09-2.07,0-3.05.27-.27-3.04-1.8-5.84-4.24-7.62-.44-.32-1.04-.32-1.48,0-2.43,1.77-3.97,4.57-4.24,7.61-.98-.26-2.01-.36-3.05-.27-.53.05-.97.42-1.1.93-.76,2.89-.1,5.98,1.76,8.26,1.54,1.89,3.77,3.04,6.15,3.23,0,.06-.03.11-.03.17v3.56c-1.83-1.69-4.27-2.55-6.77-2.32-.53.05-.97.42-1.1.93-.76,2.89-.1,5.98,1.76,8.26,1.53,1.88,3.75,3.03,6.11,3.23v2.64c0,.69.56,1.26,1.26,1.26s1.26-.56,1.26-1.26v-2.63c2.36-.2,4.57-1.35,6.11-3.24,1.86-2.29,2.52-5.38,1.76-8.26-.13-.51-.57-.88-1.1-.93M14.86,15.2c-1.14,1.4-2.79,2.24-4.54,2.34-.22-1.83.29-3.69,1.45-5.12,1.14-1.4,2.79-2.24,4.54-2.34.22,1.83-.29,3.69-1.45,5.12ZM6.92,8.81c0-2.27.93-4.42,2.52-5.92,1.59,1.5,2.52,3.65,2.52,5.92,0,.05,0,.1,0,.14-.79.5-1.52,1.13-2.13,1.88-.14.18-.26.36-.39.55-.13-.18-.23-.38-.37-.55-.61-.75-1.34-1.38-2.13-1.88,0-.05,0-.09,0-.14ZM4.02,15.2c-1.16-1.43-1.68-3.29-1.45-5.12,1.75.1,3.4.94,4.54,2.34.43.53.75,1.13,1,1.76-.29,1.06-.4,2.16-.31,3.26-1.46-.26-2.79-1.04-3.77-2.25ZM4.02,29.04c-1.16-1.43-1.68-3.29-1.45-5.12,1.75.1,3.4.94,4.54,2.34.43.53.75,1.13,1,1.76-.29,1.06-.4,2.16-.31,3.26-1.46-.26-2.79-1.04-3.77-2.25ZM14.86,29.04c-1.14,1.4-2.79,2.24-4.54,2.34-.22-1.83.29-3.69,1.45-5.12,1.14-1.4,2.79-2.24,4.54-2.34.22,1.83-.29,3.69-1.45,5.12Z"/>
      <path class="cls-2" d="M35.26,21.43c-2.49-.23-4.94.63-6.77,2.32v-3.56c0-.06-.03-.11-.03-.16,2.37-.19,4.6-1.34,6.15-3.24,1.86-2.29,2.52-5.38,1.76-8.26-.13-.51-.57-.88-1.1-.93-1.04-.09-2.07,0-3.05.27-.27-3.04-1.8-5.84-4.24-7.62-.44-.32-1.04-.32-1.48,0-2.43,1.77-3.97,4.57-4.24,7.61-.98-.26-2.01-.36-3.05-.27-.53.05-.97.42-1.1.93-.76,2.89-.1,5.98,1.76,8.26,1.54,1.89,3.77,3.04,6.15,3.23,0,.06-.03.11-.03.17v3.56c-1.83-1.69-4.27-2.55-6.77-2.32-.53.05-.97.42-1.1.93-.76,2.89-.1,5.98,1.76,8.26,1.53,1.88,3.75,3.03,6.11,3.23v2.64c0,.69.56,1.26,1.26,1.26s1.26-.56,1.26-1.26v-2.63c2.36-.2,4.57-1.35,6.11-3.24,1.86-2.29,2.52-5.38,1.76-8.26-.13-.51-.57-.88-1.1-.93M32.65,15.2c-1.14,1.4-2.79,2.24-4.54,2.34-.22-1.83.29-3.69,1.45-5.12,1.14-1.4,2.79-2.24,4.54-2.34.22,1.83-.29,3.69-1.45,5.12ZM24.71,8.81c0-2.27.93-4.42,2.52-5.92,1.59,1.5,2.52,3.65,2.52,5.92,0,.05,0,.1,0,.14-.79.5-1.52,1.13-2.13,1.88-.14.18-.26.36-.39.55-.13-.18-.23-.38-.37-.55-.61-.75-1.34-1.38-2.13-1.88,0-.05,0-.09,0-.14ZM21.81,15.2c-1.16-1.43-1.68-3.29-1.45-5.12,1.75.1,3.4.94,4.54,2.34.43.53.75,1.13,1,1.76-.29,1.06-.4,2.16-.31,3.26-1.46-.26-2.79-1.04-3.77-2.25ZM21.81,29.04c-1.16-1.43-1.68-3.29-1.45-5.12,1.75.1,3.4.94,4.54,2.34.43.53.75,1.13,1,1.76-.29,1.06-.4,2.16-.31,3.26-1.46-.26-2.79-1.04-3.77-2.25ZM32.65,29.04c-1.14,1.4-2.79,2.24-4.54,2.34-.22-1.83.29-3.69,1.45-5.12,1.14-1.4,2.79-2.24,4.54-2.34.22,1.83-.29,3.69-1.45,5.12Z"/>
      <path class="cls-2" d="M53.12,21.43c-3.93-.36-5.72,1.21-7.89,3.99-2.25-2.68-4.35-4.34-8.17-3.99-.53.05-.97.42-1.1.93-.76,2.89-.1,5.98,1.76,8.26,1.53,1.88,3.75,3.03,6.11,3.23v2.64c0,.69.56,1.26,1.26,1.26s1.26-.56,1.26-1.26v-2.63c2.36-.2,4.57-1.35,6.11-3.24,1.86-2.29,2.52-5.38,1.76-8.26-.13-.51-.57-.88-1.1-.93M39.68,29.04c-1.16-1.43-1.68-3.29-1.45-5.12,1.75.1,3.4.94,4.54,2.34.43.53.75,1.13,1,1.76-.29,1.06-.4,2.16-.31,3.26-1.46-.26-2.79-1.04-3.77-2.25ZM50.51,29.04c-1.14,1.4-2.79,2.24-4.54,2.34-.22-1.83.29-3.69,1.45-5.12,1.14-1.4,2.79-2.24,4.54-2.34.22,1.83-.29,3.69-1.45,5.12Z"/>
      <path class="cls-1" d="M42.6,16.07s.84.92,2.38,1.15v1.06h1.27v-1.06c1.5-.23,2.34-1.31,2.34-2.55,0-2.58-3.8-2.51-3.8-3.51,0-.47.47-.65.89-.65,1.01,0,1.85.74,1.85.74l.86-1.67s-.71-.75-2.14-.91v-1.06h-1.27v1.1c-1.3.25-2.23,1.18-2.23,2.49,0,2.51,3.8,2.6,3.8,3.53,0,.5-.46.67-.88.67-1.05,0-2-.87-2-.87l-1.08,1.55ZM45.6,5.51c4.11,0,7.44,3.33,7.44,7.44s-3.33,7.44-7.44,7.44-7.44-3.33-7.44-7.44,3.33-7.44,7.44-7.44Z"/>
    </g>
  </g>
</svg>