<?xml version="1.0" encoding="UTF-8"?>
<svg id="Layer_2" data-name="Layer 2" xmlns="http://www.w3.org/2000/svg" viewBox="0 0 39.25 39.25">
  <defs>
    <style>
      .cls-1 {
        fill: #011839;
      }

      .cls-2 {
        fill: #4776fa;
      }
    </style>
  </defs>
  <g id="Layer_1-2" data-name="Layer 1">
    <g>
      <path class="cls-1" d="M37.94,5.89h-1.31v-3.27h1.31c.72,0,1.31-.58,1.31-1.31s-.59-1.31-1.31-1.31h-5.23c-.72,0-1.31.59-1.31,1.31s.58,1.31,1.31,1.31h1.31v3.27h-1.31c-.68,0-1.21.52-1.28,1.17l-5-.5c-1.36-2.35-3.89-3.94-6.8-3.94s-5.44,1.59-6.8,3.94l-5,.5c-.07-.66-.61-1.17-1.28-1.17h-1.31v-3.27h1.31c.72,0,1.31-.58,1.31-1.31s-.59-1.31-1.31-1.31H1.31C.58,0,0,.59,0,1.31s.58,1.31,1.31,1.31h1.31v3.27h-1.31c-.72,0-1.31.58-1.31,1.31v6.54c0,1.93,1.4,3.53,3.24,3.86l5.42,6.77c.26.32.64.49,1.02.49.29,0,.58-.09.82-.29.57-.45.66-1.27.2-1.84l-4.59-5.74c1.01-.68,1.68-1.82,1.72-3.12l4.99.5c1.36,2.35,3.89,3.94,6.8,3.94s5.44-1.59,6.8-3.94l4.99-.5c.05,1.3.71,2.44,1.72,3.12l-4.59,5.74c-.45.57-.36,1.39.2,1.84.24.19.53.29.82.29.38,0,.76-.17,1.02-.49l5.42-6.77c1.84-.33,3.24-1.93,3.24-3.86v-6.54c0-.72-.59-1.31-1.31-1.31M2.62,8.5h2.61v5.23c0,.72-.59,1.31-1.31,1.31s-1.31-.59-1.31-1.31v-5.23ZM7.85,11.25v-1.56l4.02-.4c-.06.39-.1.78-.1,1.18s.04.79.1,1.18l-4.02-.4ZM19.62,15.7c-2.89,0-5.23-2.35-5.23-5.23s2.35-5.23,5.23-5.23,5.23,2.35,5.23,5.23-2.35,5.23-5.23,5.23ZM27.38,9.29l4.02.4v1.56l-4.02.4c.06-.39.1-.78.1-1.18s-.04-.8-.1-1.18ZM36.63,13.74c0,.72-.59,1.31-1.31,1.31s-1.31-.59-1.31-1.31v-5.23h2.62v5.23Z"/>
      <path class="cls-1" d="M20.93,9.16h-2.62c-.72,0-1.31.59-1.31,1.31s.59,1.31,1.31,1.31h2.62c.72,0,1.31-.58,1.31-1.31s-.59-1.31-1.31-1.31"/>
      <path class="cls-2" d="M18.31,30.09h2.62v-2.62h-2.62v2.62ZM27.47,27.48h-3.92v3.92c0,.72-.59,1.31-1.31,1.31h-5.23c-.72,0-1.31-.59-1.31-1.31v-3.92h-3.93c-.72,0-1.31.59-1.31,1.31v9.16c0,.72.59,1.31,1.31,1.31h15.7c.72,0,1.31-.59,1.31-1.31v-9.16c0-.72-.59-1.31-1.31-1.31Z"/>
    </g>
  </g>
</svg>