<?xml version="1.0" encoding="UTF-8"?>
<svg id="Layer_2" data-name="Layer 2" xmlns="http://www.w3.org/2000/svg" viewBox="0 0 51.05 46.49">
  <defs>
    <style>
      .cls-1 {
        fill: #011839;
      }

      .cls-2 {
        fill: none;
        stroke: #000;
        stroke-miterlimit: 22.93;
        stroke-width: .48px;
      }

      .cls-3 {
        fill: #4776fa;
      }
    </style>
  </defs>
  <g id="Layer_1-2" data-name="Layer 1">
    <g>
      <path class="cls-1" d="M9.44,35.47l-.73.73c-.45.45-.45,1.18,0,1.63.23.22.52.34.82.34s.59-.11.82-.34l.73-.73c.45-.45.45-1.18,0-1.63-.45-.45-1.18-.45-1.63,0M14.08,30.84l-.73.73c-.45.45-.45,1.18,0,1.63.23.23.52.34.82.34s.59-.11.82-.34l.73-.73c.45-.45.45-1.18,0-1.63-.45-.45-1.18-.45-1.63,0ZM32.69,15c.29,0,.59-.11.82-.34l.73-.73c.45-.45.45-1.18,0-1.63-.45-.45-1.18-.45-1.63,0l-.73.73c-.45.45-.45,1.18,0,1.63.23.23.52.34.82.34ZM29.61,18.57c.45-.45.45-1.18,0-1.63-.45-.45-1.18-.45-1.63,0l-.73.73c-.45.45-.45,1.18,0,1.63.23.23.52.34.82.34s.59-.11.82-.34l.73-.73ZM18.71,26.2l-.73.73c-.45.45-.45,1.18,0,1.63.22.23.52.34.82.34s.59-.11.82-.34l.73-.73c.45-.45.45-1.18,0-1.63-.45-.45-1.18-.45-1.63,0ZM23.34,21.57l-.73.73c-.45.45-.45,1.18,0,1.63.23.23.52.34.82.34s.59-.11.82-.34l.73-.73c.45-.45.45-1.18,0-1.63-.45-.45-1.18-.45-1.63,0ZM37.62,7.77h-5.45c-.64,0-1.15.52-1.15,1.15s.52,1.15,1.15,1.15h4.3v4.3c0,.64.52,1.15,1.15,1.15s1.15-.52,1.15-1.15v-5.45c0-.64-.52-1.15-1.15-1.15Z"/>
      <line class="cls-2" x1="30.77" y1="3.78" x2="3.78" y2="30.77"/>
      <path class="cls-3" d="M32.09.42c.56-.56,1.47-.56,2.04,0,.56.56.56,1.47,0,2.04L2.46,34.13c-.56.56-1.47.56-2.04,0-.56-.56-.56-1.47,0-2.04L32.09.42Z"/>
      <path class="cls-3" d="M47.3,32.06c.79,0,1.43.66,1.42,1.45,0,.79-.66,1.43-1.45,1.42l-22.46-.31-11.45,11.45c-.56.56-1.47.56-2.04,0-.56-.56-.56-1.47,0-2.04l11.88-11.88h0c.26-.26.63-.42,1.03-.42l23.07.32ZM42.99,12.36c.56-.56,1.47-.56,2.04,0,.56.56.56,1.47,0,2.04l-9.53,9.53,14.15.44c.79.02,1.42.68,1.39,1.47-.02.79-.68,1.42-1.47,1.39l-17.37-.54c-.39.02-.79-.12-1.09-.42-.56-.56-.56-1.47,0-2.04l11.88-11.88Z"/>
    </g>
  </g>
</svg>