<?xml version="1.0" encoding="UTF-8"?>
<svg id="Layer_2" data-name="Layer 2" xmlns="http://www.w3.org/2000/svg" viewBox="0 0 40.49 40.49">
  <defs>
    <style>
      .cls-1 {
        fill: #011839;
      }

      .cls-2 {
        fill: #4776fa;
      }
    </style>
  </defs>
  <g id="Layer_1-2" data-name="Layer 1">
    <g>
      <path class="cls-1" d="M39.14,37.79v-13.5c.75,0,1.35-.6,1.35-1.35s-.6-1.35-1.35-1.35H1.35c-.75,0-1.35.6-1.35,1.35s.6,1.35,1.35,1.35v13.5c-.75,0-1.35.6-1.35,1.35s.6,1.35,1.35,1.35h37.79c.75,0,1.35-.6,1.35-1.35s-.6-1.35-1.35-1.35M4.05,24.29h32.39v13.5H4.05v-13.5Z"/>
      <path class="cls-1" d="M8.1,26.32c-.75,0-1.35.6-1.35,1.35v6.75c0,.75.6,1.35,1.35,1.35s1.35-.6,1.35-1.35v-6.75c0-.74-.6-1.35-1.35-1.35"/>
      <path class="cls-1" d="M16.2,26.32c-.75,0-1.35.6-1.35,1.35v6.75c0,.75.6,1.35,1.35,1.35s1.35-.6,1.35-1.35v-6.75c0-.74-.6-1.35-1.35-1.35"/>
      <path class="cls-1" d="M24.29,26.32c-.75,0-1.35.6-1.35,1.35v6.75c0,.75.6,1.35,1.35,1.35s1.35-.6,1.35-1.35v-6.75c0-.74-.6-1.35-1.35-1.35"/>
      <path class="cls-1" d="M32.39,26.32c-.75,0-1.35.6-1.35,1.35v6.75c0,.75.6,1.35,1.35,1.35s1.35-.6,1.35-1.35v-6.75c0-.74-.6-1.35-1.35-1.35"/>
      <path class="cls-2" d="M25.64,12.19c-.42.81-1,1.52-1.73,2.07l5.56,4.64h4.22l-8.05-6.71Z"/>
      <path class="cls-2" d="M14.85,12.19l-8.05,6.71h4.22l5.56-4.64c-.72-.55-1.31-1.26-1.73-2.07"/>
      <path class="cls-2" d="M18.89,3.54c.44-.1.88-.16,1.35-.16s.91.06,1.35.16v-.84h10.14c.75,0,1.35-.6,1.35-1.35s-.6-1.35-1.35-1.35H8.76c-.75,0-1.35.6-1.35,1.35s.6,1.35,1.35,1.35h10.14v.84Z"/>
      <path class="cls-2" d="M20.24,6.07c-1.86,0-3.37,1.51-3.37,3.37s1.51,3.37,3.37,3.37,3.37-1.51,3.37-3.37-1.51-3.37-3.37-3.37"/>
    </g>
  </g>
</svg>