<?xml version="1.0" encoding="UTF-8"?>
<svg id="Layer_2" data-name="Layer 2" xmlns="http://www.w3.org/2000/svg" viewBox="0 0 30.62 38.27">
  <defs>
    <style>
      .cls-1 {
        fill: #011839;
      }

      .cls-2 {
        fill: #4776fa;
      }
    </style>
  </defs>
  <g id="Layer_1-2" data-name="Layer 1">
    <g>
      <path class="cls-1" d="M29.34,30.49H12.59c-.55-2.43-2.49-4.35-4.94-4.85V3.83c0-2.11-1.72-3.83-3.83-3.83H1.28C.57,0,0,.57,0,1.28s.57,1.27,1.28,1.27h2.55c.7,0,1.27.57,1.27,1.28v21.81c-2.91.59-5.1,3.17-5.1,6.25,0,3.52,2.86,6.38,6.38,6.38,3.12,0,5.72-2.26,6.26-5.23h11.6v3.95c0,.7.57,1.28,1.27,1.28s1.27-.57,1.27-1.28v-3.95h2.55c.71,0,1.28-.57,1.28-1.28s-.57-1.27-1.28-1.27M6.38,35.72c-2.11,0-3.83-1.72-3.83-3.83s1.72-3.83,3.83-3.83,3.83,1.72,3.83,3.83-1.72,3.83-3.83,3.83Z"/>
      <path class="cls-1" d="M6.7,30.62h-.64c-.71,0-1.28.57-1.28,1.28s.57,1.27,1.28,1.27h.64c.7,0,1.27-.57,1.27-1.27s-.57-1.28-1.27-1.28"/>
      <path class="cls-2" d="M20.41,10.21c.28,0,.56.09.8.28l1.12.89v-5h-3.83v5l1.12-.89c.23-.19.52-.28.8-.28M27.43,6.38h-2.55v7.65c0,.49-.28.94-.72,1.15-.18.09-.36.13-.55.13-.29,0-.57-.09-.8-.28l-2.39-1.91-2.39,1.91c-.38.31-.91.36-1.35.15-.44-.21-.72-.66-.72-1.15v-7.65h-2.55c-1.76,0-3.19,1.43-3.19,3.19v14.03c0,1.76,1.43,3.19,3.19,3.19h14.03c1.76,0,3.19-1.43,3.19-3.19v-14.03c0-1.76-1.43-3.19-3.19-3.19ZM17.22,22.96h-1.28c-.7,0-1.28-.57-1.28-1.28s.57-1.27,1.28-1.27h1.28c.71,0,1.27.57,1.27,1.27s-.57,1.28-1.27,1.28ZM24.88,22.96h-1.27c-.71,0-1.28-.57-1.28-1.28s.57-1.27,1.28-1.27h1.27c.7,0,1.28.57,1.28,1.27s-.57,1.28-1.28,1.28Z"/>
    </g>
  </g>
</svg>