<?xml version="1.0" encoding="UTF-8"?>
<svg id="Layer_2" data-name="Layer 2" xmlns="http://www.w3.org/2000/svg" viewBox="0 0 35.39 35.39">
  <defs>
    <style>
      .cls-1 {
        fill: #011839;
      }

      .cls-2 {
        fill: #4776fa;
      }
    </style>
  </defs>
  <g id="Layer_1-2" data-name="Layer 1">
    <g>
      <path class="cls-1" d="M30.08,24.77c-2.93,0-5.31,2.38-5.31,5.31s2.38,5.31,5.31,5.31,5.31-2.38,5.31-5.31-2.38-5.31-5.31-5.31M30.08,33.03c-1.63,0-2.95-1.32-2.95-2.95s1.32-2.95,2.95-2.95,2.95,1.32,2.95,2.95-1.32,2.95-2.95,2.95Z"/>
      <path class="cls-1" d="M22.42,28.9h-.32c-.65,0-1.18.53-1.18,1.18s.53,1.18,1.18,1.18h.32c.65,0,1.18-.53,1.18-1.18s-.53-1.18-1.18-1.18"/>
      <path class="cls-1" d="M24.77,21.15c0-1.63-1.32-2.95-2.95-2.95h-8.85c-.65,0-1.18.53-1.18,1.18s.53,1.18,1.18,1.18h8.85c.32,0,.59.26.59.59v1.85c0,.33-.27.59-.59.59H5.89c-1.63,0-2.95,1.32-2.95,2.95v1.77c0,1.63,1.32,2.95,2.95,2.95h12.2c.65,0,1.18-.53,1.18-1.18s-.53-1.18-1.18-1.18H5.89c-.33,0-.59-.26-.59-.59v-1.77c0-.33.26-.59.59-.59h15.94c1.63,0,2.95-1.32,2.95-2.95v-1.85Z"/>
      <path class="cls-2" d="M8.26,5.9c-1.3,0-2.36,1.06-2.36,2.36s1.06,2.36,2.36,2.36,2.36-1.06,2.36-2.36-1.06-2.36-2.36-2.36"/>
      <path class="cls-2" d="M8.26,0C3.7,0,0,3.71,0,8.26c0,5.73,7.2,11.78,7.5,12.03.22.18.49.27.75.27s.53-.09.75-.27c.31-.25,7.51-6.3,7.51-12.03C16.52,3.71,12.81,0,8.26,0M8.26,12.98c-2.6,0-4.72-2.12-4.72-4.72s2.12-4.72,4.72-4.72,4.72,2.12,4.72,4.72-2.12,4.72-4.72,4.72Z"/>
    </g>
  </g>
</svg>