<?xml version="1.0" encoding="UTF-8"?>
<svg id="Layer_2" data-name="Layer 2" xmlns="http://www.w3.org/2000/svg" viewBox="0 0 33.31 33.31">
  <defs>
    <style>
      .cls-1 {
        fill: #4776fa;
      }

      .cls-2 {
        fill: #061938;
      }
    </style>
  </defs>
  <g id="Layer_1-2" data-name="Layer 1">
    <g>
      <path class="cls-2" d="M30.54,16.66c-.61,0-1.11.5-1.11,1.11v12.77c0,.31-.25.56-.56.56h-7.77v-13.33c0-.61-.5-1.11-1.11-1.11s-1.11.5-1.11,1.11v13.33h-4.44v-13.33c0-.61-.5-1.11-1.11-1.11s-1.11.5-1.11,1.11v13.33h-7.77c-.31,0-.55-.25-.55-.56v-12.77c0-.61-.5-1.11-1.11-1.11s-1.11.5-1.11,1.11v12.77c0,1.53,1.25,2.78,2.78,2.78h24.43c1.53,0,2.78-1.25,2.78-2.78v-12.77c0-.61-.5-1.11-1.11-1.11"/>
      <path class="cls-1" d="M24.43,5.55v1.11h2.22v-1.11c0-3.06-2.49-5.55-5.55-5.55-1.82,0-3.43.89-4.44,2.25-1.01-1.36-2.62-2.25-4.44-2.25-3.06,0-5.55,2.49-5.55,5.55v1.11h2.22v-1.11c0-1.84,1.49-3.33,3.33-3.33s3.33,1.49,3.33,3.33v1.11h2.22v-1.11c0-1.84,1.49-3.33,3.33-3.33s3.33,1.49,3.33,3.33M0,11.1v3.33h9.99v-5.55H2.22c-1.23,0-2.22.99-2.22,2.22ZM31.09,8.88h-7.77v5.55h9.99v-3.33c0-1.23-.99-2.22-2.22-2.22ZM12.22,14.44h8.88v-5.55h-8.88v5.55Z"/>
    </g>
  </g>
</svg>