<?xml version="1.0" encoding="UTF-8"?>
<svg id="Layer_2" data-name="Layer 2" xmlns="http://www.w3.org/2000/svg" viewBox="0 0 35.39 35.39">
  <defs>
    <style>
      .cls-1 {
        fill: #011839;
      }

      .cls-2 {
        fill: #7738c7;
      }

      .cls-3 {
        fill: #4776fa;
      }
    </style>
  </defs>
  <g id="Layer_1-2" data-name="Layer 1">
    <g>
      <path class="cls-1" d="M30.67,20.05h-.59c-.65,0-1.18.53-1.18,1.18s.53,1.18,1.18,1.18h.59c.65,0,1.18-.53,1.18-1.18s-.53-1.18-1.18-1.18"/>
      <path class="cls-1" d="M34.74,15.3l-3.8-4.75c-.56-.7-1.4-1.11-2.3-1.11h-5.05v-1.18c0-.65-.53-1.18-1.18-1.18s-1.18.53-1.18,1.18v15.34H1.18c-.65,0-1.18.53-1.18,1.18v4.72c0,.65.53,1.18,1.18,1.18h1.18v.59c0,2.28,1.85,4.13,4.13,4.13s4.13-1.85,4.13-4.13v-.59h14.75v.59c0,2.28,1.85,4.13,4.13,4.13s4.13-1.85,4.13-4.13v-.59h.59c.65,0,1.18-.53,1.18-1.18v-12.36c0-.67-.23-1.32-.65-1.84M29.1,12.02l3.6,4.5h-3.8c-.32,0-.59-.26-.59-.59v-4.13h.33c.18,0,.35.08.46.22ZM23.59,11.8h2.36v4.13c0,1.63,1.32,2.95,2.95,2.95h4.13v4.72h-9.44v-11.8ZM2.36,25.95h30.67v2.36H2.36v-2.36ZM8.26,31.26c0,.98-.79,1.77-1.77,1.77s-1.77-.79-1.77-1.77v-.59h3.54v.59ZM31.26,31.26c0,.98-.79,1.77-1.77,1.77s-1.77-.79-1.77-1.77v-.59h3.54v.59Z"/>
      <path class="cls-2" d="M9.44,3.54c.26,0,.52.09.74.26l1.03.83V0h-3.54v4.62l1.03-.83c.22-.17.48-.26.74-.26"/>
      <path class="cls-3" d="M15.93,0H2.95C1.32,0,0,1.32,0,2.95v15.34c0,1.63,1.32,2.95,2.95,2.95h12.98c1.63,0,2.95-1.32,2.95-2.95V2.95c0-1.63-1.32-2.95-2.95-2.95M7.08,18.88h-1.18c-.65,0-1.18-.53-1.18-1.18s.53-1.18,1.18-1.18h1.18c.65,0,1.18.53,1.18,1.18s-.53,1.18-1.18,1.18ZM12.98,18.88h-1.18c-.65,0-1.18-.53-1.18-1.18s.53-1.18,1.18-1.18h1.18c.65,0,1.18.53,1.18,1.18s-.53,1.18-1.18,1.18Z"/>
    </g>
  </g>
</svg>