<?xml version="1.0" encoding="UTF-8"?>
<svg id="Layer_2" data-name="Layer 2" xmlns="http://www.w3.org/2000/svg" viewBox="0 0 35.39 35.39">
  <defs>
    <style>
      .cls-1 {
        fill: #011839;
      }

      .cls-2 {
        fill: #4776fa;
      }
    </style>
  </defs>
  <g id="Layer_1-2" data-name="Layer 1">
    <g>
      <path class="cls-1" d="M33.03,6.95c-.06-.6-.57-1.06-1.17-1.06h-3.54v-2.95c0-1.63-1.32-2.95-2.95-2.95h-3.54c-1.63,0-2.95,1.32-2.95,2.95v2.95h-3.54c-.6,0-1.11.46-1.17,1.06l-.63,5.9c-.07.65.4,1.23,1.05,1.3.64.06,1.23-.4,1.3-1.05l.51-4.84h2.48v2.36c0,.65.53,1.18,1.18,1.18s1.18-.53,1.18-1.18v-2.36h4.72v2.36c0,.65.53,1.18,1.18,1.18s1.18-.53,1.18-1.18v-2.36h2.48l1.49,14.16h-9.87c-.65,0-1.18.53-1.18,1.18s.53,1.18,1.18,1.18h10.11l.37,3.54h-10.49c-.65,0-1.18.53-1.18,1.18s.53,1.18,1.18,1.18h11.8c.33,0,.65-.14.88-.39.22-.25.33-.58.3-.91l-2.36-22.42ZM21.24,5.9v-2.95c0-.33.26-.59.59-.59h3.54c.33,0,.59.26.59.59v2.95h-4.72Z"/>
      <path class="cls-2" d="M17.7,16.52H1.18c-.65,0-1.18.53-1.18,1.18v16.52c0,.65.53,1.18,1.18,1.18h16.52c.65,0,1.18-.53,1.18-1.18v-16.52c0-.65-.53-1.18-1.18-1.18M14.16,27.13c0,1.63-1.32,2.95-2.95,2.95h-3.54c-1.63,0-2.95-1.32-2.95-2.95v-4.13c0-.65.53-1.18,1.18-1.18s1.18.53,1.18,1.18v4.13c0,.33.26.59.59.59h3.54c.33,0,.59-.26.59-.59v-4.13c0-.65.53-1.18,1.18-1.18s1.18.53,1.18,1.18v4.13Z"/>
    </g>
  </g>
</svg>