<?xml version="1.0" encoding="UTF-8"?>
<svg id="Layer_2" data-name="Layer 2" xmlns="http://www.w3.org/2000/svg" viewBox="0 0 39.51 39.51">
  <defs>
    <style>
      .cls-1 {
        fill: #011839;
      }

      .cls-2 {
        fill: #4776fa;
      }
    </style>
  </defs>
  <g id="Layer_1-2" data-name="Layer 1">
    <g>
      <path class="cls-1" d="M38.48,1.54c-.12-.21-.3-.39-.51-.51-3.2-1.78-7.23-1.21-9.82,1.37L8.96,21.59l-4.67-.36c-1.22-.08-2.42.35-3.28,1.21-.78.78-1.15,1.91-.97,3,.18,1.1.88,2.05,1.87,2.54l5.28,2.64,1.68,1.68,2.64,5.28c.5.99,1.45,1.69,2.54,1.87.19.03.37.04.55.04.91,0,1.8-.36,2.45-1.01.87-.87,1.31-2.06,1.21-3.28l-.36-4.67,19.19-19.19c2.58-2.58,3.15-6.62,1.37-9.82M2.64,25.03c-.02-.13-.04-.45.23-.72.32-.32.77-.47,1.21-.45l3.75.29-.8,3.46-3.95-1.97c-.34-.17-.43-.48-.45-.61ZM15.2,36.63c-.27.27-.59.25-.72.23-.13-.02-.44-.1-.61-.45l-1.97-3.95,3.46-.8.29,3.75c.04.45-.13.89-.45,1.21ZM35.24,9.49L15.9,28.84l-5.5,1.27-1-1,1.27-5.51L30.02,4.27c1.67-1.67,4.22-2.1,6.34-1.11.99,2.11.56,4.67-1.11,6.34ZM31.77,4.44c-.72.07-1.26.71-1.19,1.43.07.72.69,1.25,1.43,1.19.15-.01.27.01.34.09.07.07.1.19.09.34-.07.72.46,1.37,1.19,1.43.04,0,.08,0,.12,0,.67,0,1.25-.51,1.31-1.2.09-.93-.22-1.82-.84-2.45-.63-.62-1.52-.93-2.45-.84Z"/>
      <path class="cls-2" d="M37.43,29.98l-1.81-13.41-9.21,9.21c1.22,2.72.83,1.85,4.65,10.37.18.4.54.68.96.76.08.01.16.02.24.02.34,0,.68-.14.93-.39l3.05-3.05c.92-.92,1.36-2.23,1.19-3.52"/>
      <path class="cls-2" d="M6.01,3.27l-3.05,3.05c-.31.31-.44.74-.37,1.17.08.43.36.78.76.96,8.49,3.8,7.06,3.17,10.37,4.65L22.94,3.89l-13.41-1.81c-1.29-.17-2.6.27-3.52,1.19"/>
    </g>
  </g>
</svg>