<?xml version="1.0" encoding="UTF-8"?>
<svg id="Layer_2" data-name="Layer 2" xmlns="http://www.w3.org/2000/svg" viewBox="0 0 53.07 37.07">
  <defs>
    <style>
      .cls-1 {
        fill: #011839;
      }

      .cls-2 {
        fill: #4776fa;
      }
    </style>
  </defs>
  <g id="Layer_1-2" data-name="Layer 1">
    <g>
      <path class="cls-1" d="M51.83,22.24H12.35v-12.35h1.24c.68,0,1.23-.55,1.23-1.24s-.55-1.23-1.23-1.23h-4.05L7.35.85c-.17-.5-.64-.85-1.17-.85H1.24C.55,0,0,.55,0,1.24v34.59c0,.68.55,1.24,1.24,1.24h42.16c.99,0,1.92-.39,2.62-1.09l5.97-5.97c.7-.7,1.09-1.63,1.09-2.62v-3.92c0-.68-.55-1.23-1.24-1.23M9.89,22.24H2.47v-12.35h7.41v12.35ZM5.29,2.47l1.65,4.94H2.47V2.47h2.82ZM50.6,27.39c0,.33-.13.64-.36.87l-5.97,5.97c-.23.23-.54.36-.87.36H2.47v-9.88h48.13v2.68Z"/>
      <path class="cls-1" d="M5.56,14.83h1.23c.68,0,1.23-.55,1.23-1.23s-.55-1.24-1.23-1.24h-1.23c-.68,0-1.24.55-1.24,1.24s.55,1.23,1.24,1.23"/>
      <path class="cls-1" d="M6.8,17.3h-1.23c-.68,0-1.24.55-1.24,1.24s.55,1.23,1.24,1.23h1.23c.68,0,1.23-.55,1.23-1.23s-.55-1.24-1.23-1.24"/>
      <path class="cls-1" d="M6.18,32.12h1.24c.68,0,1.23-.55,1.23-1.23s-.55-1.24-1.23-1.24h-1.24c-.68,0-1.23.55-1.23,1.24s.55,1.23,1.23,1.23"/>
      <path class="cls-1" d="M12.35,32.12h1.24c.68,0,1.23-.55,1.23-1.23s-.55-1.24-1.23-1.24h-1.24c-.68,0-1.23.55-1.23,1.24s.55,1.23,1.23,1.23"/>
      <path class="cls-2" d="M15.01,8.65v11.12h17.3v-11.12H15.01"/>
      <path class="cls-2" d="M35.59,8.65v11.12h17.3v-11.12h-17.3"/>
    </g>
  </g>
</svg>