<?xml version="1.0" encoding="UTF-8"?>
<svg id="Layer_2" data-name="Layer 2" xmlns="http://www.w3.org/2000/svg" viewBox="0 0 36.01 36.01">
  <defs>
    <style>
      .cls-1 {
        fill: #4776fa;
      }

      .cls-2 {
        fill: #061938;
      }
    </style>
  </defs>
  <g id="Layer_1-2" data-name="Layer 1">
    <g>
      <path class="cls-2" d="M22.8,24c-.66,0-1.2.54-1.2,1.2v.6c0,.66.54,1.2,1.2,1.2s1.2-.54,1.2-1.2v-.6c0-.66-.54-1.2-1.2-1.2"/>
      <path class="cls-2" d="M35.77,22.08l-3.6-4.8c-.23-.3-.58-.48-.96-.48H4.8c-.38,0-.73.18-.96.48L.24,22.08c-.27.36-.32.85-.11,1.26.2.41.62.66,1.07.66h3v10.8c0,.66.54,1.2,1.2,1.2h25.2c.66,0,1.2-.54,1.2-1.2v-10.8h3c.45,0,.87-.26,1.07-.66.2-.41.16-.89-.11-1.26M3.6,21.6l1.8-2.4h15l-1.8,2.4H3.6ZM14.4,33.6h-7.8v-4.8h6.6c.66,0,1.2.54,1.2,1.2v3.6ZM29.41,33.6h-5.4v-4.8c0-.66-.54-1.2-1.2-1.2s-1.2.54-1.2,1.2v4.8h-4.8v-3.6c0-1.98-1.62-3.6-3.6-3.6h-6.6v-2.4h12.6c.38,0,.73-.18.96-.48l2.64-3.52,2.64,3.52c.23.3.58.48.96.48h3v9.6ZM27,21.6l-1.8-2.4h5.4l1.8,2.4h-5.4Z"/>
      <path class="cls-1" d="M24.34,9.33c-.41-.52-1.17-.6-1.69-.19l-.45.36v-3.5h-8.4v3.5l-.45-.36c-.52-.41-1.27-.33-1.69.19-.41.52-.33,1.27.19,1.69l5.4,4.32c.22.17.48.26.75.26s.53-.09.75-.26l5.4-4.32c.52-.41.6-1.17.19-1.69"/>
      <path class="cls-1" d="M22.2,2.4c0-1.33-1.07-2.4-2.4-2.4h-3.6c-1.32,0-2.4,1.07-2.4,2.4v1.2h8.4v-1.2Z"/>
    </g>
  </g>
</svg>