<?xml version="1.0" encoding="UTF-8"?>
<svg id="Layer_2" data-name="Layer 2" xmlns="http://www.w3.org/2000/svg" viewBox="0 0 35.39 35.39">
  <defs>
    <style>
      .cls-1 {
        fill: #011839;
      }

      .cls-2 {
        fill: #4776fa;
      }
    </style>
  </defs>
  <g id="Layer_1-2" data-name="Layer 1">
    <g>
      <path class="cls-1" d="M13.17,11.4h3.93c.65,0,1.18-.53,1.18-1.18s-.53-1.18-1.18-1.18h-1.77v-.79c0-.65-.53-1.18-1.18-1.18s-1.18.53-1.18,1.18v.81c-1.64.1-2.95,1.46-2.95,3.13s1.41,3.15,3.14,3.15h1.97c.43,0,.79.35.79.79s-.35.79-.79.79h-3.93c-.65,0-1.18.53-1.18,1.18s.53,1.18,1.18,1.18h1.77v.79c0,.65.53,1.18,1.18,1.18s1.18-.53,1.18-1.18v-.81c1.64-.1,2.95-1.46,2.95-3.13s-1.41-3.15-3.15-3.15h-1.97c-.43,0-.78-.35-.78-.79s.35-.79.78-.79"/>
      <path class="cls-1" d="M21.83,12.98h-.59c-.65,0-1.18.53-1.18,1.18s.53,1.18,1.18,1.18h.59c.65,0,1.18-.53,1.18-1.18s-.53-1.18-1.18-1.18"/>
      <path class="cls-1" d="M6.49,12.98c-.65,0-1.18.53-1.18,1.18s.53,1.18,1.18,1.18h.59c.65,0,1.18-.53,1.18-1.18s-.53-1.18-1.18-1.18h-.59Z"/>
      <path class="cls-1" d="M14.16,0C6.35,0,0,6.35,0,14.16s6.35,14.16,14.16,14.16h.01c.65,0,1.17-.53,1.17-1.18s-.53-1.18-1.18-1.18c-6.51,0-11.8-5.29-11.8-11.8S7.65,2.36,14.16,2.36s11.8,5.29,11.8,11.81c0,.65.53,1.17,1.18,1.17s1.18-.53,1.18-1.18C28.31,6.35,21.96,0,14.16,0"/>
      <path class="cls-2" d="M26.54,17.7c-4.88,0-8.85,3.97-8.85,8.85s3.97,8.85,8.85,8.85,8.85-3.97,8.85-8.85-3.97-8.85-8.85-8.85M30.33,25.5l-3.75,3.75c-.23.23-.53.35-.83.35s-.6-.11-.83-.35l-2.15-2.15c-.46-.46-.46-1.21,0-1.67.46-.46,1.21-.46,1.67,0l1.31,1.31,2.92-2.92c.46-.46,1.21-.46,1.67,0,.46.46.46,1.21,0,1.67Z"/>
    </g>
  </g>
</svg>