<?xml version="1.0" encoding="UTF-8"?>
<svg id="Layer_2" data-name="Layer 2" xmlns="http://www.w3.org/2000/svg" viewBox="0 0 29.11 36.38">
  <defs>
    <style>
      .cls-1 {
        fill: #4776fa;
      }

      .cls-2 {
        fill: #061938;
      }
    </style>
  </defs>
  <g id="Layer_1-2" data-name="Layer 1">
    <g>
      <path class="cls-2" d="M9.1,3.64c-.67,0-1.21.54-1.21,1.21s.54,1.21,1.21,1.21h2.43c.67,0,1.21-.54,1.21-1.21s-.54-1.21-1.21-1.21h-2.43Z"/>
      <path class="cls-2" d="M19.4,6.67c.67,0,1.21-.54,1.21-1.21v-2.43c0-1.67-1.36-3.03-3.03-3.03H3.03C1.36,0,0,1.36,0,3.03v30.32c0,1.67,1.36,3.03,3.03,3.03h14.55c1.67,0,3.03-1.36,3.03-3.03v-6.06c0-.67-.54-1.21-1.21-1.21s-1.21.54-1.21,1.21v1.82H2.43V3.03c0-.33.27-.61.61-.61h14.55c.33,0,.61.27.61.61v2.43c0,.67.54,1.21,1.21,1.21M18.19,31.53v1.82c0,.33-.27.61-.61.61H3.03c-.33,0-.61-.27-.61-.61v-1.82h15.77Z"/>
      <path class="cls-1" d="M29.08,21.46l-1.37-10.92c-.19-1.51-1.48-2.66-3.01-2.66h-9.4c-1.53,0-2.82,1.14-3.01,2.66l-1.36,10.92c-.11.86.16,1.73.74,2.38.58.65,1.4,1.03,2.27,1.03h12.13c.87,0,1.7-.37,2.27-1.03.58-.65.84-1.52.74-2.38M24.86,16.98c0,2.01-1.63,3.64-3.64,3.64h-2.43c-2.01,0-3.64-1.63-3.64-3.64v-3.64c0-.67.54-1.21,1.21-1.21s1.21.54,1.21,1.21v3.64c0,.67.54,1.21,1.21,1.21h2.43c.67,0,1.21-.54,1.21-1.21v-3.64c0-.67.54-1.21,1.21-1.21s1.21.54,1.21,1.21v3.64Z"/>
    </g>
  </g>
</svg>